<?xml version="1.0" encoding="utf-8"?>
<!-- Generator: Adobe Illustrator 27.0.0, SVG Export Plug-In . SVG Version: 6.00 Build 0)  -->
<svg version="1.1" id="图层_1" xmlns="http://www.w3.org/2000/svg" xmlns:xlink="http://www.w3.org/1999/xlink" x="0px" y="0px"
	 viewBox="0 0 24 24" style="enable-background:new 0 0 24 24;" xml:space="preserve">
<style type="text/css">
	.st0{fill:#292D32;}
</style>
<path class="st0" d="M21.4,7.7l-7-5.6C13,1,10.8,1,9.5,2.1l-7,5.6c-1,0.8-1.6,2.4-1.4,3.7l1.4,8.1c0.3,1.8,2,3.2,3.8,3.2h11.4
	c1.8,0,3.5-1.5,3.8-3.3l1.4-8.1C23,10.1,22.4,8.5,21.4,7.7z M12.8,18c0,0.4-0.3,0.8-0.8,0.8s-0.8-0.3-0.8-0.8V15
	c0-0.4,0.3-0.8,0.8-0.8s0.8,0.3,0.8,0.8V18z"/>
</svg>
