<?xml version="1.0" encoding="utf-8"?>
<!-- Generator: Adobe Illustrator 27.0.0, SVG Export Plug-In . SVG Version: 6.00 Build 0)  -->
<svg version="1.1" id="图层_1" xmlns="http://www.w3.org/2000/svg" xmlns:xlink="http://www.w3.org/1999/xlink" x="0px" y="0px"
	 viewBox="0 0 24 24" style="enable-background:new 0 0 24 24;" xml:space="preserve">
<style type="text/css">
	.st0{fill:#292D32;}
</style>
<path class="st0" d="M12,18.8c-0.4,0-0.8-0.3-0.8-0.8V15c0-0.4,0.3-0.8,0.8-0.8s0.8,0.3,0.8,0.8V18C12.8,18.4,12.4,18.8,12,18.8z"/>
<path class="st0" d="M17.8,22.8H6.3c-1.9,0-3.5-1.4-3.8-3.2l-1.4-8.1c-0.2-1.3,0.4-2.9,1.4-3.7l7-5.6c1.4-1.1,3.5-1.1,4.9,0l7,5.6
	c1,0.8,1.6,2.4,1.4,3.7l-1.4,8.1C21.3,21.2,19.6,22.8,17.8,22.8z M12.1,2.7c-0.5,0-1.1,0.2-1.5,0.5l-7,5.7c-0.6,0.5-1,1.5-0.9,2.2
	L4,19.2c0.2,1.1,1.3,2,2.3,2h11.4c1.1,0,2.2-0.9,2.3-2l1.4-8.1c0.1-0.7-0.3-1.8-0.9-2.2l-7-5.6C13.2,2.8,12.6,2.7,12.1,2.7z"/>
</svg>
