<?xml version="1.0" encoding="utf-8"?>
<!-- Generator: Adobe Illustrator 27.0.0, SVG Export Plug-In . SVG Version: 6.00 Build 0)  -->
<svg version="1.1" id="图层_1" xmlns="http://www.w3.org/2000/svg" xmlns:xlink="http://www.w3.org/1999/xlink" x="0px" y="0px"
	 viewBox="0 0 24 24" style="enable-background:new 0 0 24 24;" xml:space="preserve">
<style type="text/css">
	.st0{fill:#292D32;}
</style>
<path class="st0" d="M12,22.8c-0.7,0-1.3-0.3-1.8-1l-1.5-2c0,0-0.1-0.1-0.2-0.1H8c-4.2,0-6.8-1.1-6.8-6.7V8c0-4.4,2.3-6.7,6.8-6.7h8
	c4.4,0,6.8,2.3,6.8,6.7v5c0,4.4-2.3,6.7-6.8,6.7h-0.5c-0.1,0-0.1,0-0.2,0.1l-1.5,2C13.3,22.4,12.7,22.8,12,22.8z M8,2.7
	C4.4,2.7,2.8,4.4,2.8,8v5c0,4.5,1.6,5.2,5.2,5.2h0.5c0.5,0,1.1,0.3,1.4,0.7l1.5,2c0.4,0.5,0.9,0.5,1.2,0l1.5-2
	c0.3-0.4,0.8-0.7,1.4-0.7H16c3.6,0,5.2-1.7,5.2-5.2V8c0-3.6-1.7-5.2-5.2-5.2H8z"/>
<path class="st0" d="M12,12c-0.6,0-1-0.4-1-1s0.4-1,1-1s1,0.4,1,1S12.6,12,12,12z"/>
<path class="st0" d="M16,12c-0.6,0-1-0.4-1-1s0.4-1,1-1c0.5,0,1,0.4,1,1S16.6,12,16,12z"/>
<path class="st0" d="M8,12c-0.6,0-1-0.4-1-1s0.4-1,1-1s1,0.4,1,1S8.6,12,8,12z"/>
</svg>
