<?xml version="1.0" encoding="utf-8"?>
<!-- Generator: Adobe Illustrator 27.0.0, SVG Export Plug-In . SVG Version: 6.00 Build 0)  -->
<svg version="1.1" id="图层_1" xmlns="http://www.w3.org/2000/svg" xmlns:xlink="http://www.w3.org/1999/xlink" x="0px" y="0px"
	 viewBox="0 0 24 24" style="enable-background:new 0 0 24 24;" xml:space="preserve">
<style type="text/css">
	.st0{fill:#292D32;}
</style>
<path class="st0" d="M17.4,1.2H6.6c-3,0-5.4,2.4-5.4,5.4v6.4v1.1c0,3,2.4,5.4,5.4,5.4h1.6c0.3,0,0.7,0.2,0.9,0.4l1.6,2.1
	c0.7,0.9,1.9,0.9,2.6,0l1.6-2.1c0.2-0.3,0.5-0.4,0.9-0.4h1.6c3,0,5.4-2.4,5.4-5.4V6.7C22.8,3.7,20.3,1.2,17.4,1.2z M8,12
	c-0.6,0-1-0.4-1-1s0.4-1,1-1s1,0.4,1,1S8.6,12,8,12z M12,12c-0.6,0-1-0.4-1-1s0.4-1,1-1s1,0.4,1,1S12.6,12,12,12z M16,12
	c-0.6,0-1-0.4-1-1s0.4-1,1-1c0.5,0,1,0.4,1,1S16.6,12,16,12z"/>
</svg>
