<?xml version="1.0" encoding="utf-8"?>
<!-- Generator: Adobe Illustrator 27.0.0, SVG Export Plug-In . SVG Version: 6.00 Build 0)  -->
<svg version="1.1" id="图层_1" xmlns="http://www.w3.org/2000/svg" xmlns:xlink="http://www.w3.org/1999/xlink" x="0px" y="0px"
	 viewBox="0 0 1024 1024" style="enable-background:new 0 0 1024 1024;" xml:space="preserve">
<style type="text/css">
	.st0{fill-rule:evenodd;clip-rule:evenodd;fill:#FFFFFF;}
	.st1{fill-rule:evenodd;clip-rule:evenodd;fill:#666666;}
</style>
<rect class="st0" width="1024" height="1024"/>
<path class="st1" d="M1024,0v1024H688c0,0,19-47,13.9-52c-3.6-3.5-2-10.8,0.2-17c8.8-9.3,14.1-17.9,15.5-23.1
	c4.5-16.8,0.2-25.2,0.2-25.2c-3.8,7.7-14.5,12.4-14.5,12.4l-2.2-5c0,0-6.6,17.1-90,35.7s-193.9-12.2-193.9-12.2
	C70.8,847.2,128.2,778.2,128.2,778.2c-3.5,24.2,35,78.7,223.2,134.1c188.2,55.5,287.3,12.5,287.3,12.5c-30.7,9.2-88.1,14.3-94.8,4.1
	c-6.6-10.2-7-23.4,9.2-28.2s25.2,1.4,78.7,0.1c53.5-1.3,91.7-34.9,91.7-34.9c-22,6-28.6,1.9-28.6,1.9s44.5-13.7,55-28.7
	s2.5-24.9,2.5-24.9c-17.2,33-87.9,52.9-167.3,20.8s-166-115.2-166-115.2s1.6,22.9-10.5,27c-12.1,4.1-16-7.5-22.8-13.4
	c-6.7-5.9-18.2-5.4-18.2-5.4s32.6-58.8,20.8-92.6c-11.8-33.8-59.6-41-59.8-101.1c-0.2-60.1,83.7-154.2,86.1-157.1
	c2.5-2.9,6.5-6.4,9.7-5c3.3,1.5,1.5,5.1,1.5,5.1s-5.3,7.8-29.2,41c-23.9,33.2-54.1,99.7-56,111.5c-1.8,11.8,1.4,17.1,1.4,17.1
	s11.5-45.4,63.4-122s120.5-140,158.5-140c37.9,0,41.4,20.5,41.4,20.5l24.5,7.1c0,0-26-43.6-31.3-45.3c-5.3-1.7-60-26.1-128.5,19.3
	c-68.5,45.4-93.9,105.4-93.9,105.4s14-62,64.3-111.2c50.3-49.3,84.4-47.7,84.4-47.7s-23.9-26.3-126.4-27.3s-247,62.9-312.8,135.3
	S4.3,513.4,4.3,513.4S31.9,389,163.8,380.5S291,515,291,515c12.4-27.8,50.5-72.1,50.5-72.1c-31.3,51.7-54.7,119.8-54.7,119.8
	c-35.2,3.6-67.6,32.3-67.6,32.3c74.7-42.7,124.3,0.2,142.7,42.7s-3.3,115-78.8,109.5c-75.5-5.5-95.3-84.5-95.3-84.5
	c-2.9,83.6,67,97.8,79.3,100.3s67.5,9.1,78,12s61.1,31.7,61.1,31.7l14.5-36.3c91.1,58.6,159,103.5,159,103.5
	c-25.9-0.6-61.7-9.1-68.1-0.7c-6.4,8.4-7.3,49.8-7.3,49.8c-63-4.5-231.3-59-301.7-89.8c-70.4-30.8-73.2-89-73.2-89
	C103.8,759.4,107,813,107,813S0,721,0,554C0,353,0,0,0,0H1024z M449.2,1022.9c-101.4-12.4-193.7-54.6-267.9-117.6
	C400.2,1032.9,566,1005.8,566,1005.8c-175-1-353.6-92.5-411.3-124.9c-7-6.8-13.8-13.8-20.3-21l-0.2-2.2c6.4,6.9,37,22.3,37,22.3
	l0.7-6.9c0,0-18.2-12.5-20.5-16.5c-2.3-4,0-12.9,0-12.9c275,159.3,466.7,112,466.7,112s14.1,4.9,8.5,16.2S598,999.6,598,999.6
	c34.4,1.3,63.5-11.7,84.4-27.1c-5.3,9.6-19.7,20.8-51.6,32.8C579.7,1024.5,505.2,1025.6,449.2,1022.9L449.2,1022.9z M570.5,308
	c27-1.9,142.3,20.1,220.8,181.4S735,824.1,735,824.1s81.9-110.9,45.9-255S611.5,343.3,582.4,335c-29.1-8.4-80.7,9.9-92.9,24.1
	C507.6,335.1,543.5,309.9,570.5,308L570.5,308z M299.5,603.6c0,0-36.5-4-61.5,31.9c-25,36,5,78.5,25.6,92.2c0,0-44-9.1-43.1-67.1
	C221.5,602.7,291.9,597.7,299.5,603.6L299.5,603.6z M307.7,618.7c0,0,19.1,3,23.7,32.5c4.6,29.5-15.5,53.7-51.8,57.7
	c0,0,16,5,42.6-10.5C348.8,682.9,344.8,617.7,307.7,618.7L307.7,618.7z"/>
</svg>
