<?xml version="1.0" encoding="utf-8"?>
<!-- Generator: Adobe Illustrator 26.4.1, SVG Export Plug-In . SVG Version: 6.00 Build 0)  -->
<svg version="1.1" id="图层_1" xmlns="http://www.w3.org/2000/svg" xmlns:xlink="http://www.w3.org/1999/xlink" x="0px" y="0px"
	 viewBox="0 0 200 200" style="enable-background:new 0 0 200 200;" xml:space="preserve">
<style type="text/css">
	.st0{fill:#E3DEFF;}
	.st1{fill:#CBB8FF;}
	.st2{fill:#404951;}
	.st3{fill:#FFFFFF;}
</style>
<rect class="st0" width="200" height="200"/>
<g>
	<path class="st1" d="M84.1,104.4c0,10.4,8.5,18.9,18.9,18.9s18.9-8.5,18.9-18.9c0,0,0,0,0,0c0-10.4-8.5-18.9-18.9-18.9
		S84.1,93.9,84.1,104.4C84.1,104.3,84.1,104.3,84.1,104.4z"/>
	<path class="st2" d="M103,126.5c-12.2,0-22.1-9.9-22.1-22.1s9.9-22.1,22.1-22.1s22.1,9.9,22.1,22.1
		C125.1,116.6,115.2,126.5,103,126.5z M103,88.7c-8.7,0-15.7,7-15.7,15.7c0,8.7,7,15.7,15.7,15.7c8.7,0,15.7-7,15.7-15.7
		C118.7,95.7,111.7,88.7,103,88.7z"/>
	<path class="st2" d="M103,150.1c-25.2,0-45.7-20.5-45.7-45.7S77.8,58.6,103,58.6c25.2,0,45.7,20.5,45.7,45.7
		C148.7,129.6,128.3,150,103,150.1L103,150.1z M103,65c-21.7,0-39.3,17.6-39.3,39.3c0,21.7,17.6,39.3,39.3,39.3
		c21.7,0,39.3-17.6,39.3-39.3C142.3,82.6,124.7,65.1,103,65z"/>
	<path class="st2" d="M103,174.5c-39.6,0-71.7-32.1-71.7-71.7c0-39.6,32.1-71.7,71.7-71.7c39.6,0,71.7,32.1,71.7,71.7l0,0
		C174.7,142.4,142.6,174.5,103,174.5z M103,37.5c-36.1,0-65.3,29.2-65.3,65.3s29.2,65.3,65.3,65.3s65.3-29.2,65.3-65.3c0,0,0,0,0,0
		C168.3,66.7,139.1,37.5,103,37.5z"/>
	<path class="st3" d="M118.9,136.7c0,5.2,4.2,9.3,9.3,9.3c5.2,0,9.3-4.2,9.3-9.3c0,0,0,0,0,0c0-5.2-4.2-9.3-9.3-9.3
		C123.1,127.4,118.9,131.5,118.9,136.7C118.9,136.7,118.9,136.7,118.9,136.7z"/>
	<path class="st2" d="M128.2,149.2c-6.9,0-12.5-5.6-12.5-12.5c0-6.9,5.6-12.5,12.5-12.5c6.9,0,12.5,5.6,12.5,12.5c0,0,0,0,0,0
		C140.7,143.6,135.1,149.2,128.2,149.2z M128.2,130.6c-3.4,0-6.1,2.7-6.1,6.1s2.7,6.1,6.1,6.1s6.1-2.7,6.1-6.1l0,0
		C134.3,133.3,131.6,130.6,128.2,130.6z"/>
	<path class="st3" d="M51.5,48.4c0,7.2,5.8,12.9,12.9,12.9s12.9-5.8,12.9-12.9s-5.8-12.9-12.9-12.9S51.5,41.2,51.5,48.4z"/>
	<path class="st2" d="M64.5,64.5c-8.9,0-16.1-7.2-16.1-16.1s7.2-16.1,16.1-16.1s16.1,7.2,16.1,16.1c0,0,0,0,0,0
		C80.6,57.3,73.4,64.5,64.5,64.5z M64.5,38.6c-5.4,0-9.8,4.4-9.8,9.8c0,5.4,4.4,9.8,9.8,9.8s9.8-4.4,9.8-9.8
		C74.2,43,69.9,38.6,64.5,38.6z"/>
</g>
</svg>
