<?xml version="1.0" encoding="utf-8"?>
<!-- Generator: Adobe Illustrator 27.0.0, SVG Export Plug-In . SVG Version: 6.00 Build 0)  -->
<svg version="1.1" id="图层_1" xmlns="http://www.w3.org/2000/svg" xmlns:xlink="http://www.w3.org/1999/xlink" x="0px" y="0px"
	 viewBox="0 0 1024 1024" style="enable-background:new 0 0 1024 1024;" xml:space="preserve">
<style type="text/css">
	.st0{fill-rule:evenodd;clip-rule:evenodd;fill:#666666;}
</style>
<path class="st0" d="M1024,0v1024H688c0,0,19-47,13.91-51.95c-3.56-3.47-2.04-10.85,0.25-16.97c8.75-9.35,14.14-17.93,15.52-23.08
	c4.53-16.83,0.22-25.22,0.22-25.22c-3.82,7.74-14.55,12.38-14.55,12.38l-2.2-4.95c0,0-6.61,17.06-89.96,35.65
	c-83.35,18.59-193.85-12.24-193.85-12.24C70.75,847.2,128.23,778.25,128.23,778.25c-3.53,24.24,35.03,78.67,223.21,134.12
	c188.19,55.45,287.28,12.52,287.28,12.52c-30.68,9.2-88.13,14.3-94.75,4.06c-6.63-10.25-6.96-23.36,9.24-28.18
	c16.2-4.82,25.17,1.44,78.69,0.11c53.53-1.32,91.69-34.87,91.69-34.87c-22.01,6.02-28.59,1.9-28.59,1.9s44.51-13.71,55.02-28.72
	s2.45-24.88,2.45-24.88c-17.18,33-87.94,52.92-167.27,20.75c-79.33-32.17-165.99-115.23-165.99-115.23s1.63,22.9-10.48,26.96
	c-12.11,4.07-16.02-7.5-22.75-13.42c-6.74-5.92-18.23-5.39-18.23-5.39s32.56-58.8,20.77-92.56
	c-11.79-33.77-59.56-40.99-59.79-101.09c-0.23-60.09,83.66-154.16,86.12-157.1c2.45-2.94,6.45-6.43,9.73-4.98
	c3.28,1.45,1.48,5.14,1.48,5.14s-5.32,7.83-29.19,41.03c-23.86,33.21-54.12,99.69-55.96,111.52c-1.84,11.83,1.37,17.14,1.37,17.14
	s11.54-45.35,63.35-122.03c51.81-76.68,120.54-139.96,158.49-140c37.94-0.04,41.43,20.54,41.43,20.54l24.5,7.14
	c0,0-25.96-43.59-31.29-45.27c-5.33-1.68-60.02-26.14-128.47,19.26c-68.46,45.41-93.95,105.43-93.95,105.43s13.99-61.95,64.3-111.23
	c50.31-49.29,84.4-47.71,84.4-47.71s-23.94-26.31-126.43-27.3c-102.49-0.99-246.97,62.94-312.75,135.27
	c-65.78,72.33-81.6,172.19-81.6,172.19s27.65-124.4,159.52-132.88c131.87-8.48,127.2,134.51,127.2,134.51
	c12.41-27.78,50.55-72.06,50.55-72.06c-31.32,51.72-54.74,119.79-54.74,119.79c-35.18,3.62-67.57,32.29-67.57,32.29
	c74.66-42.72,124.33,0.23,142.66,42.73c18.33,42.5-3.33,115.03-78.83,109.48c-75.51-5.55-95.3-84.49-95.3-84.49
	C184.87,746.35,254.72,760.56,267,763s67.45,9.12,78,12s61.15,31.7,61.15,31.7l14.5-36.3c91.05,58.59,158.99,103.55,158.99,103.55
	c-25.88-0.64-61.74-9.12-68.13-0.71c-6.4,8.42-7.34,49.78-7.34,49.78c-62.99-4.5-231.33-58.97-301.74-89.78
	c-70.4-30.81-73.2-89-73.2-89C103.78,759.44,107,813,107,813S0,721,0,554C0,353,0,0,0,0H1024z M449.22,1022.88
	c-101.43-12.44-193.69-54.63-267.85-117.59c218.8,127.64,384.59,100.5,384.59,100.5c-175.05-0.99-353.58-92.48-411.33-124.87
	c-6.96-6.81-13.75-13.8-20.32-21l-0.23-2.17c6.38,6.94,36.99,22.31,36.99,22.31l0.66-6.92c0,0-18.22-12.46-20.48-16.47
	c-2.26-4.02,0.03-12.9,0.03-12.9c275.03,159.33,466.65,112,466.65,112s14.13,4.92,8.47,16.21s-28.37,27.63-28.37,27.63
	c34.42,1.31,63.49-11.72,84.4-27.09c-5.29,9.59-19.74,20.84-51.63,32.81C579.66,1024.51,505.19,1025.64,449.22,1022.88
	L449.22,1022.88z M570.48,307.97c27.01-1.94,142.33,20.11,220.75,181.41c78.42,161.3-56.23,334.73-56.23,334.73
	s81.94-110.94,45.93-255.03c-36.01-144.09-169.45-225.73-198.56-234.12c-29.11-8.4-80.69,9.92-92.93,24.14
	C507.57,335.12,543.47,309.91,570.48,307.97L570.48,307.97z M299.52,603.63c0,0-36.54-4.01-61.53,31.94
	c-24.99,35.96,4.98,78.5,25.65,92.15c0,0-43.99-9.13-43.05-67.07C221.54,602.72,291.85,597.65,299.52,603.63L299.52,603.63z
	 M307.69,618.7c0,0,19.14,3,23.71,32.51c4.56,29.51-15.49,53.74-51.82,57.66c0,0,16,5.05,42.6-10.46
	C348.78,682.9,344.77,617.66,307.69,618.7L307.69,618.7z"/>
</svg>
