<?xml version="1.0" encoding="utf-8"?>
<!-- Generator: Adobe Illustrator 27.0.0, SVG Export Plug-In . SVG Version: 6.00 Build 0)  -->
<svg version="1.1" id="图层_1" xmlns="http://www.w3.org/2000/svg" xmlns:xlink="http://www.w3.org/1999/xlink" x="0px" y="0px"
	 viewBox="0 0 933 637.1" style="enable-background:new 0 0 933 637.1;" xml:space="preserve">
<style type="text/css">
	.st0{fill:#FF6584;}
	.st1{fill:#F0F0F0;}
	.st2{fill:#F2F2F2;}
	.st3{fill:#E4E4E4;}
	.st4{fill:#FFFFFF;}
	.st5{fill:#3F3D56;}
	.st6{fill:#2AAE67;}
	.st7{opacity:0.15;enable-background:new    ;}
	.st8{opacity:0.15;}
	.st9{fill:#E6E6E6;}
	.st10{fill:#CCCCCC;}
</style>
<circle class="st0" cx="276" cy="51" r="51"/>
<path class="st1" d="M368.1,11.9c-24.7-3.3-52.9,10-59.3,34.1c-4.2-11.2-16.7-16.8-27.8-12.6c-6.5,2.5-11.5,7.9-13.3,14.7l2.8,2
	c53,11.5,107.8,11.2,160.7-0.7C413.9,31.3,392.8,15.2,368.1,11.9z"/>
<path class="st1" d="M262.1,79.9c-24.7-3.3-52.9,10-59.3,34.1c-4.2-11.2-16.7-16.8-27.8-12.6c-6.5,2.5-11.5,7.9-13.3,14.7l2.8,2
	c53,11.5,107.8,11.2,160.7-0.7C307.9,99.3,286.8,83.2,262.1,79.9z"/>
<path class="st2" d="M450.8,216.3c-8.4-13.8-18.3-28.6-33.8-33.1c-18-5.2-36.4,5.2-52.1,15.4c-46.9,30.7-92,63.9-135.1,99.6l0,0.5
	c33.6-2.3,67.2-4.6,100.8-7c24.3-1.7,49.4-3.6,70.9-15.1c8.1-4.4,16.1-10.2,25.3-10.6c11.5-0.5,21.5,7.5,29.3,15.9
	c46.5,49.5,59.9,125.2,112.1,168.7C535.3,369.5,496,291.1,450.8,216.3z"/>
<path class="st3" d="M736.4,636c-5.1-6.5-7.2-8-12.3-14.6c-41.3-53.4-80.1-108.6-116.4-165.6c-24.7-38.7-48.1-78.2-70.3-118.4
	c-10.6-19.1-20.9-38.4-30.9-57.8c-7.8-15.1-15.3-30.2-22.8-45.4c-2.1-4.4-4.2-8.7-6.2-13.1c-4.8-10.3-9.6-20.6-14.7-30.8
	c-5.8-11.6-12.9-23.7-23.5-31.5c-4.8-3.7-10.6-5.9-16.7-6.4c-8.7-0.6-16.7,3-24.2,6.9c-55,28.7-106.5,64.7-153.1,105.6
	c-46.7,41-88.5,87.4-124.4,138.1c-1.1,1.6-3.7,0.1-2.6-1.5c4.4-6.2,8.8-12.3,13.4-18.3c56.5-75.1,125.8-139.7,204.6-190.9
	c13.3-8.6,26.8-16.8,40.6-24.6c6.9-3.9,13.9-7.8,21-11.5c7-3.6,14.3-6.8,22.3-6.9c27-0.4,41,30.2,50.6,50.8c3,6.5,6.1,12.9,9.2,19.4
	c11.7,24.4,23.8,48.7,36.4,72.7c7.8,14.8,15.7,29.6,23.8,44.2c25.2,45.6,52.1,90.3,80.5,134.1c37.6,58,75,109.2,117.9,163.4
	C739.7,635.4,737.6,637.6,736.4,636z"/>
<path class="st3" d="M242.7,249.9c-1.6-1.8-3.1-3.5-4.7-5.2c-12.5-13.8-25.8-27.4-42.9-35.3c-8.2-3.9-17.1-6-26.1-6
	c-9.3,0-18.5,2.5-27.1,5.9c-4.1,1.6-8.1,3.5-12,5.5c-4.5,2.3-8.9,4.7-13.3,7.1c-8.2,4.6-16.4,9.3-24.4,14.3
	c-16,9.9-31.4,20.5-46.4,31.9c-7.8,5.9-15.4,12-22.8,18.3C16,292,9.2,298,2.6,304.2c-1.4,1.3-3.5-0.8-2.1-2.1
	c1.8-1.6,3.5-3.2,5.3-4.9c5-4.5,10.1-9,15.2-13.3c9.4-7.9,19.1-15.6,29-22.9c15.4-11.4,31.3-22,47.8-31.9c8.2-4.9,16.6-9.6,25-14.1
	c2.6-1.4,5.1-2.7,7.7-4c5.9-3,12.1-5.5,18.4-7.5c9-2.9,18.4-3.8,27.8-2.7c9,1.3,17.7,4.3,25.6,8.9c16.8,9.4,29.8,23.9,42.5,38.1
	C246.1,249.2,244,251.4,242.7,249.9z"/>
<path class="st3" d="M586.9,392.7l40.3-14.7l20-7.3c6.5-2.4,13-5.1,19.7-6.8c5.9-1.5,12-1.8,17.9,0.2c5.2,1.9,9.9,4.9,13.9,8.6
	c4.1,3.8,7.9,7.9,11.4,12.2c4.4,5.2,8.6,10.5,12.9,15.8c17.8,21.7,35.4,43.6,53,65.5c17.5,21.9,35,43.9,52.3,66.1
	c17.3,22.2,34.6,44.4,51.7,66.8c2.1,2.7,4.2,5.5,6.3,8.2c1.2,1.5,3.8,0,2.6-1.5c-17.2-22.6-34.6-45.1-52.1-67.5
	c-17.5-22.4-35.2-44.8-52.9-67c-17.8-22.3-35.6-44.4-53.6-66.5c-4.5-5.5-9-11-13.5-16.5c-3.8-4.6-7.5-9.3-11.7-13.6
	c-7.6-7.9-17.2-14.9-28.6-15.1c-6.7-0.1-13.2,2-19.5,4.3c-6.7,2.4-13.4,4.9-20.2,7.4l-40.5,14.8l-10.1,3.7
	C584.3,390.5,585.1,393.4,586.9,392.7L586.9,392.7z"/>
<path class="st2" d="M189.7,226.7c-20.5-10.5-46.7-8.5-65.5,4.7c35.9,6.2,71.3,14.5,106.2,24.8C216,247.7,204.7,234.4,189.7,226.7z"
	/>
<path class="st2" d="M124.1,231.3l-3.9,3.2c1.3-1.1,2.7-2.2,4.1-3.2C124.2,231.4,124.1,231.4,124.1,231.3z"/>
<path class="st2" d="M697.2,392.9c-4-4.8-8.2-9.9-14.2-11.8l-5.5,0.2c42.1,74.4,99,139.5,167.2,191.1
	C795.5,512.5,746.3,452.7,697.2,392.9z"/>
<path class="st1" d="M235,581.3c2.3-18.1,13.5-36,30.8-41.9c-6.8,18.7-6.8,39.2,0,57.8c2.7,7.2,6.4,14.9,3.9,22.2
	c-1.6,4.5-5.4,8-9.6,10.1c-4.3,2.2-9,3.2-13.6,4.2l-0.9,0.8C238.1,617.7,232.8,599.4,235,581.3z"/>
<path class="st4" d="M266,539.7c-10.1,11.3-16.3,25.5-17.9,40.5c-0.4,3.2-0.3,6.5,0.4,9.7c0.7,3.1,2.2,5.9,4.4,8.2
	c2,2.2,4.3,4.2,5.7,6.8c1.4,2.8,1.6,6,0.5,8.9c-1.3,3.6-3.7,6.6-6.3,9.4c-2.8,3.1-5.8,6.3-7,10.4c-0.1,0.5-0.9,0.2-0.8-0.3
	c2.1-7.2,9-11.2,12.3-17.7c1.5-3,2.2-6.5,0.7-9.7c-1.3-2.8-3.6-4.9-5.7-7.1c-2.2-2.2-3.8-4.9-4.6-7.9c-0.8-3.2-1-6.4-0.7-9.7
	c0.6-7.3,2.3-14.5,5.1-21.2c3.2-7.7,7.6-14.9,13.2-21.1C265.8,538.7,266.4,539.3,266,539.7L266,539.7z"/>
<path class="st4" d="M248.3,575.3c-5.1-1.2-8.6-6-8.2-11.3c0-0.5,0.8-0.5,0.8,0c-0.4,4.9,2.9,9.4,7.7,10.5
	C249.1,574.7,248.8,575.5,248.3,575.3L248.3,575.3z"/>
<path class="st4" d="M251.7,597.2c4.5-2.7,7.8-7,9.3-12c0.1-0.5,0.9-0.2,0.8,0.3c-1.6,5.2-5,9.7-9.7,12.5
	C251.7,598.2,251.3,597.5,251.7,597.2L251.7,597.2z"/>
<path class="st4" d="M256.2,553.2c1.9,0.9,4,0.8,5.8-0.3c0.4-0.3,0.8,0.5,0.4,0.7c-1.9,1.2-4.3,1.3-6.4,0.3
	c-0.2-0.1-0.3-0.3-0.3-0.5C255.8,553.3,256,553.2,256.2,553.2z"/>
<path class="st1" d="M318.6,571.8c-0.3,0.2-0.5,0.4-0.8,0.5c-3.6,2.4-7.1,5.1-10.3,8c-0.3,0.2-0.5,0.5-0.7,0.7
	c-7.7,7.2-13.9,15.8-18.4,25.2c-1.8,3.8-3.3,7.7-4.5,11.7c-1.7,5.5-3,11.7-6.3,16.2c-0.3,0.5-0.7,0.9-1.1,1.4h-29.8
	c-0.1,0-0.1-0.1-0.2-0.1l-1.2,0.1c0-0.2,0.1-0.4,0.1-0.6c0-0.1,0.1-0.2,0.1-0.4c0-0.1,0-0.2,0.1-0.2c0,0,0-0.1,0-0.1
	c0-0.1,0-0.1,0-0.2c0.3-1.2,0.6-2.4,0.9-3.7c0,0,0,0,0,0c2.3-9.3,5.8-18.3,10.2-26.8c0.1-0.3,0.3-0.5,0.4-0.8
	c2.1-3.8,4.4-7.3,7.1-10.7c1.5-1.8,3-3.6,4.6-5.3c4.2-4.3,9.1-8,14.5-10.8c10.7-5.6,23.1-7.8,34.5-4.4
	C318,571.6,318.3,571.7,318.6,571.8z"/>
<path class="st4" d="M318.5,572.1c-14.8,2.9-28.4,10.5-38.7,21.6c-2.3,2.3-4.1,5-5.6,8c-1.3,2.9-1.8,6.1-1.4,9.2
	c0.3,2.9,0.9,5.9,0.4,8.9c-0.5,3.1-2.3,5.8-4.9,7.4c-3.2,2.1-6.9,3-10.6,3.7c-4.1,0.8-8.4,1.5-11.8,4.1c-0.4,0.3-0.9-0.4-0.5-0.7
	c6-4.5,14-3.5,20.5-6.7c3-1.5,5.7-3.9,6.4-7.3c0.7-3,0-6.1-0.3-9c-0.4-3.1,0-6.2,1.1-9.1c1.3-3,3-5.7,5.2-8.1
	c4.9-5.5,10.5-10.2,16.9-13.9c7.2-4.3,15-7.3,23.2-8.9C319,571.2,319,572,318.5,572.1L318.5,572.1z"/>
<path class="st4" d="M282.9,589.9c-3.4-4.1-3.2-10,0.2-14c0.3-0.4,1,0.1,0.6,0.5c-3.3,3.7-3.4,9.2-0.2,13
	C283.9,589.9,283.3,590.3,282.9,589.9L282.9,589.9z"/>
<path class="st4" d="M272.5,609.4c5.2,0.6,10.4-0.9,14.6-4c0.4-0.3,0.9,0.4,0.5,0.7c-4.4,3.2-9.8,4.7-15.2,4.1
	C271.8,610.2,272,609.4,272.5,609.4L272.5,609.4z"/>
<path class="st4" d="M302.5,577c1,1.8,2.8,3,4.8,3.3c0.5,0.1,0.4,0.8-0.1,0.8c-2.3-0.2-4.3-1.6-5.3-3.6c-0.1-0.2-0.1-0.4,0.1-0.6
	C302.2,576.8,302.4,576.9,302.5,577L302.5,577z"/>
<path class="st1" d="M501.8,482.7c-14.6-32.3-14.1-73.3,8.6-100.6c7.6,37.8,28.3,71.8,58.5,95.8c11.7,9.2,25.6,18.3,28.8,32.8
	c2,9-0.8,18.6-5.7,26.5c-4.9,7.9-11.6,14.4-18.4,20.8l-0.8,2.2C543.8,539.9,516.4,515,501.8,482.7z"/>
<path class="st4" d="M511,382.5c-5.3,28.9-1.3,58.7,11.3,85.2c2.6,5.8,6.1,11.1,10.4,15.7c4.3,4.4,9.7,7.6,15.7,9.2
	c5.5,1.6,11.4,2.6,16.4,5.5c5.2,3.1,8.8,8.3,9.9,14.2c1.6,7.3,0.4,14.6-0.9,21.8c-1.5,8-3.2,16.2-1,24.3c0.3,1-1.3,1.3-1.5,0.4
	c-3.8-14,3.6-27.7,2.6-41.8c-0.5-6.5-2.9-13-8.6-16.8c-4.9-3.3-10.9-4.4-16.5-5.9c-5.8-1.5-11.2-4.4-15.7-8.4
	c-4.5-4.4-8.2-9.6-11-15.3c-6.4-12.7-10.8-26.3-13-40.3c-2.6-16-2.4-32.4,0.5-48.3C509.7,381,511.2,381.5,511,382.5z"/>
<path class="st4" d="M517.8,459.4c-9.8,3.1-20.4-1.3-25.1-10.4c-0.5-0.9,0.9-1.6,1.4-0.7c4.3,8.5,14.2,12.6,23.3,9.7
	C518.4,457.6,518.7,459.1,517.8,459.4L517.8,459.4z"/>
<path class="st4" d="M545.5,492.2c4.7-9,5.9-19.5,3.3-29.3c-0.3-1,1.3-1.3,1.5-0.4c2.7,10.2,1.5,21.1-3.5,30.5
	C546.4,493.9,545.1,493,545.5,492.2z"/>
<path class="st4" d="M508.5,414.8c4-0.4,7.5-2.8,9.3-6.4c0.5-0.9,1.8-0.1,1.3,0.8c-2,3.9-5.9,6.5-10.3,7c-0.4,0.1-0.8-0.2-0.9-0.6
	C507.8,415.3,508,414.9,508.5,414.8z"/>
<path class="st1" d="M630.5,382.4c-0.3,0.6-0.5,1.1-0.8,1.7c-3.6,7.7-6.6,15.6-8.9,23.7c-0.2,0.6-0.4,1.3-0.5,1.9
	c-5.4,19.7-7.1,40.2-5,60.5c0.8,8.1,2.3,16.1,4.3,23.9c2.8,10.8,6.8,22.4,5.9,33.2c-0.1,1.1-0.2,2.3-0.4,3.4l-49.4,30.2
	c-0.1,0-0.3,0-0.4,0l-1.9,1.3c-0.1-0.4-0.3-0.8-0.4-1.2c-0.1-0.2-0.1-0.5-0.2-0.7c0-0.2-0.1-0.3-0.2-0.4c0-0.1,0-0.1,0-0.1
	c-0.1-0.1-0.1-0.3-0.1-0.4c-0.7-2.3-1.5-4.6-2.2-7c0,0,0,0,0,0c-5.3-17.8-9.2-36.3-10.2-54.7c0-0.6-0.1-1.1-0.1-1.7
	c-0.4-8.3-0.1-16.6,0.9-24.9c0.5-4.5,1.3-9,2.3-13.5c2.6-11.5,7-22.5,13-32.6c12-20.2,30.3-36.3,52.7-42.1
	C629.4,382.7,630,382.5,630.5,382.4z"/>
<path class="st4" d="M630.8,383.1c-21.6,19.9-36.4,46.1-42.3,74.9c-1.4,6.2-1.8,12.5-1.2,18.8c0.8,6.1,3.2,11.9,7,16.8
	c3.4,4.6,7.5,8.9,9.7,14.3c2.3,5.6,2,11.9-0.7,17.3c-3.1,6.7-8.5,12-13.9,16.9c-6,5.5-12.3,11-15.4,18.8c-0.4,0.9-1.8,0.3-1.4-0.6
	c5.4-13.4,19.6-20,27.2-31.8c3.6-5.5,5.5-12.1,3.3-18.6c-1.9-5.6-6.1-10.1-9.6-14.7c-3.8-4.7-6.3-10.2-7.4-16.1
	c-0.9-6.2-0.8-12.6,0.4-18.8c2.5-14,7.2-27.5,13.9-40c7.6-14.4,17.5-27.3,29.5-38.3C630.6,381.1,631.6,382.4,630.8,383.1
	L630.8,383.1z"/>
<path class="st4" d="M589.9,448.6c-9.7-3.4-15.5-13.3-13.7-23.4c0.2-1,1.7-0.8,1.5,0.2c-1.7,9.4,3.8,18.7,12.8,21.8
	C591.5,447.5,590.8,448.9,589.9,448.6z"/>
<path class="st4" d="M592.3,491.5c9.2-4.3,16.4-12,20.2-21.4c0.4-0.9,1.8-0.3,1.4,0.6c-4,9.8-11.5,17.7-21.1,22.2
	C592,493.3,591.4,491.9,592.3,491.5L592.3,491.5z"/>
<path class="st4" d="M609.3,407.4c3.4,2.1,7.6,2.3,11.3,0.5c0.9-0.4,1.5,1,0.6,1.5c-4,1.9-8.6,1.7-12.4-0.6c-0.4-0.2-0.6-0.6-0.4-1
	C608.5,407.4,608.9,407.2,609.3,407.4L609.3,407.4z"/>
<polygon class="st5" points="725.5,520.1 781.1,478 808.1,505 717.6,567 "/>
<path class="st5" d="M673.7,636.2h-190l6.7-21.6l0,0c41.3-15,18.1-47.1,57.4-66.7c96.1-48,133.3-191.4,119.2-248.1l63-2.7
	C730,297.2,816.9,544.1,673.7,636.2z"/>
<path class="st6" d="M835.9,534.7c-11.7,10.3-29.2,10.6-41.3,0.8l-0.1-0.1l0-0.2c-0.1-2.6-0.5-5.3-1.2-7.8c0,1.8-0.3,3.6-0.8,5.4
	l-0.2,0.6l-0.4-0.4c-0.4-0.4-0.7-0.8-1.1-1.1c-2-2.2-3.6-4.7-4.9-7.4c-6.1-12.6-15-23.7-26-32.5c-2-1.6-3.8-3.4-5.5-5.3
	c-16.4-18.7-14.6-47.2,4.1-63.6c14.6-12.8,35.7-14.9,52.5-5.1l0.3,0.2l-0.1,0.3c-1.1,2.2-2.5,4.3-4.2,6c2.3-1.3,4.5-2.8,6.4-4.7
	l0.2-0.2l0.2,0.2c3,2.1,5.8,4.6,8.2,7.3l0.3,0.3c3.8,4.3,9.2,6.8,14.9,6.9c17.6,0.3,31.7,14.8,31.4,32.5c0,1.7-0.2,3.3-0.5,4.9
	l0,0.2l-0.2,0.1c-3.6,1.2-7.4,1.7-11.2,1.4c3.2,1.4,6.5,2.2,9.9,2.5l0.4,0l-0.1,0.4c-1.8,5.4-5,10.2-9.2,13.9l-0.1,0.1
	c0,0-0.1,0.1-0.1,0.1c-6.4,5.5-10.3,13.3-10.8,21.8C846.3,520.9,842.4,529,835.9,534.7z"/>
<path class="st7" d="M841.7,524.5c-0.1,1.1-0.2,2.3-0.4,3.4c3.1-4.8,4.9-10.3,5.2-16c0-0.9,0.1-1.7,0.3-2.6
	C843.8,513.8,842,519.1,841.7,524.5z"/>
<path class="st7" d="M851.8,485.7c2.5,1.1,5.2,1.9,7.9,2.2c1.1-1.1,2-2.3,2.9-3.6C859.1,485.5,855.4,486,851.8,485.7z"/>
<path class="st7" d="M863.5,475.2c0.3,2.8,0.2,5.5-0.2,8.3c1.5-2.3,2.7-4.8,3.6-7.4l0.1-0.4l-0.4,0
	C865.5,475.5,864.5,475.4,863.5,475.2z"/>
<path class="st7" d="M860.5,444.9c-5.9-6.7-14.4-10.7-23.4-10.8c-5.7-0.1-11.1-2.6-14.9-6.9l-0.3-0.3c-2.4-2.8-5.2-5.2-8.2-7.3
	l-0.2-0.2l-0.2,0.2c-1.9,1.8-4.1,3.4-6.4,4.7c1.7-1.8,3.1-3.8,4.2-6l0.1-0.3l-0.3-0.2c-21.5-12.6-49-5.3-61.6,16.1
	c-2.4,4.1-4.1,8.4-5.1,13c12.3-21.6,39.8-29.2,61.4-16.9c0.2,0.1,0.3,0.2,0.5,0.3l0.3,0.2l-0.1,0.3c-1.1,2.2-2.5,4.3-4.2,6
	c2.3-1.3,4.5-2.8,6.4-4.7l0.2-0.2l0.2,0.2c3,2.1,5.8,4.6,8.2,7.3l0.3,0.3c3.8,4.3,9.2,6.8,14.9,6.9c15.2,0.3,28.2,11.2,30.9,26.2
	c1.6-0.3,3.1-0.7,4.6-1.1l0.2-0.1l0-0.2C869.7,461.9,866.9,452.1,860.5,444.9z"/>
<path class="st6" d="M927.8,313.4c0,50.3-36.3,93.1-85.9,101.4l-0.5,0.1l-0.4-0.3c-6.5-5.5-13.8-10-21.5-13.6
	c4.3,4,8.2,8.5,11.4,13.4l1.1,1.6l-2,0.1c-1.7,0.1-3.4,0.1-5,0.1c-9.6,0-19.2-1.3-28.4-3.9c-42-11.9-87-14-133.9-6.1
	c-8,1.4-16.2,2-24.3,2c-80,0-145-65.1-145-145c-0.1-62.5,40-118.1,99.4-137.7l1-0.3l0.4,1c3.1,7.3,5,15.1,5.7,23
	c1.9-8.4,2.7-16.9,2.4-25.5l0-0.9l0.9-0.2c11.5-2.9,23.4-4.3,35.3-4.3l1.3,0c18.4,0.1,36-7.7,48.3-21.4
	c38.2-42,103.2-45.1,145.2-6.9c3.9,3.6,7.6,7.5,11,11.7l0.4,0.5l-0.3,0.6c-6,13.2-12.6,22.9-20.4,29.9c10-4.7,19.2-11,27.2-18.7l1-1
	l0.7,1.2c9.2,15.7,14,33.6,14,51.8l0,0.5c0,0.2,0,0.4,0,0.6c0,27.8,10.8,54.2,29.6,72.5C916.3,258.9,927.6,285.5,927.8,313.4z"/>
<g class="st8">
	<path d="M802.1,70.5c-3.5,5.9-7.9,11.2-13,15.9c7.2-3.4,14-7.6,20.2-12.6C807,72.5,804.5,71.4,802.1,70.5z"/>
	<path d="M861.6,193.2c5.6,5.4,10.6,11.5,14.8,18c-6.4-13.8-9.7-28.9-9.6-44.1c0-0.2,0-0.4,0-0.6l0-0.5c0-18.2-4.8-36.1-14-51.8
		l-0.7-1.2l-1,1c-5.7,5.5-12,10.3-18.8,14.3C834,153.2,844.5,176.6,861.6,193.2z"/>
	<path d="M832,119.6l0,0.5c0,0.2,0,0.4,0,0.6c0,1,0,2,0,3c4.8-6.5,8.9-13.6,12.2-21l0.3-0.6l-0.4-0.5c-5.4-6.7-11.7-12.8-18.6-18
		C829.8,95.1,832,107.3,832,119.6z"/>
	<path d="M896.3,239.5c-4.9-4.8-9.3-10.2-13.1-15.9c24.1,51.3,2,112.5-49.3,136.6c-8.5,4-17.5,6.8-26.8,8.3l-0.5,0.1l-0.4-0.3
		c-6.5-5.5-13.8-10-21.5-13.6c4.3,4,8.2,8.5,11.4,13.4l1.1,1.6l-2,0.1c-1.7,0.1-3.4,0.1-5,0.1c-9.6,0-19.2-1.3-28.4-3.9
		c-42-11.9-87-14-133.9-6.1c-8,1.4-16.2,2-24.3,2c-35.5,0-69.8-13.1-96.3-36.7c24,50.7,75,83,131.1,83.1c8.2,0,16.3-0.7,24.3-2
		c46.9-7.9,91.9-5.9,133.9,6.1c9.2,2.6,18.8,3.9,28.4,3.9c1.6,0,3.3,0,5-0.1l2-0.1l-1.1-1.6c-3.2-4.9-7-9.4-11.4-13.4
		c7.7,3.6,14.9,8.2,21.5,13.6l0.4,0.3l0.5-0.1c56-9.3,93.8-62.2,84.5-118.2C922.7,274.8,912.2,254.8,896.3,239.5L896.3,239.5z"/>
</g>
<path class="st6" d="M412.5,287.4c-5.5-6-8.4-14.9-5.5-22.5c4.4,7.7,11.4,13.5,19.7,16.6c3.2,1.2,6.9,2.1,8.7,5
	c1,1.9,1.3,4.1,0.7,6.2c-0.6,2-1.4,4-2.5,5.8l0,0.5C425.8,296.8,418,293.4,412.5,287.4z"/>
<path class="st6" d="M687.3,460.3c-5.5-6-8.4-14.9-5.5-22.5c4.4,7.7,11.4,13.5,19.7,16.6c3.2,1.2,6.9,2.1,8.7,5
	c1,1.9,1.3,4.1,0.7,6.2c-0.6,2-1.4,4-2.5,5.8l0,0.5C700.6,469.7,692.9,466.3,687.3,460.3z"/>
<path class="st6" d="M817,572c-3.9-7.2-4.4-16.5,0.3-23.1c2.3,8.5,7.6,16,14.9,21c2.8,1.9,6.2,3.8,7.1,7c0.5,2.1,0.2,4.3-0.9,6.1
	c-1.1,1.8-2.4,3.5-3.9,5l-0.1,0.5C827.5,584.4,820.8,579.1,817,572z"/>
<path class="st6" d="M910.4,433.8c-3.9-7.2-4.4-16.5,0.3-23.1c2.3,8.5,7.6,16,14.9,21c2.8,1.9,6.2,3.8,7.1,7
	c0.5,2.1,0.2,4.3-0.9,6.1c-1.1,1.8-2.4,3.5-3.9,5l-0.1,0.5C920.9,446.2,914.2,440.9,910.4,433.8z"/>
<path class="st9" d="M299.6,487c-3.9-7.2-4.4-16.5,0.3-23.1c2.3,8.5,7.6,16,14.9,21c2.8,1.9,6.2,3.8,7.1,7c0.5,2.1,0.2,4.3-0.9,6.1
	c-1.1,1.8-2.4,3.5-3.9,5l-0.1,0.5C310.2,499.4,303.5,494.2,299.6,487z"/>
<path class="st9" d="M648.7,555.6c3.4-27,20.1-53.6,45.8-62.4c-10.2,27.8-10.2,58.3,0,86.1c4,10.7,9.5,22.2,5.7,33
	c-2.3,6.7-8,11.8-14.3,15.1c-6.3,3.2-13.4,4.7-20.3,6.2l-1.4,1.1C653.3,609.8,645.4,582.6,648.7,555.6z"/>
<path class="st4" d="M694.8,493.7c-15,16.8-24.3,37.9-26.6,60.3c-0.6,4.8-0.4,9.7,0.5,14.4c1.1,4.6,3.3,8.8,6.6,12.3
	c3,3.3,6.4,6.2,8.5,10.2c2.1,4.1,2.4,8.9,0.8,13.2c-1.9,5.4-5.6,9.8-9.3,13.9c-4.2,4.6-8.6,9.3-10.4,15.5c-0.2,0.7-1.4,0.4-1.1-0.4
	c3.1-10.6,13.4-16.7,18.4-26.3c2.3-4.5,3.3-9.7,1.1-14.4c-1.9-4.1-5.4-7.2-8.4-10.5c-3.2-3.3-5.6-7.3-6.9-11.8
	c-1.2-4.7-1.5-9.6-1.1-14.4c0.9-10.9,3.4-21.5,7.6-31.6c4.7-11.5,11.3-22.1,19.6-31.4C694.5,492.2,695.3,493.1,694.8,493.7
	L694.8,493.7z"/>
<path class="st4" d="M668.5,546.8c-7.7-1.9-12.8-9-12.2-16.8c0.1-0.8,1.3-0.7,1.2,0.1c-0.6,7.3,4.3,14,11.4,15.6
	C669.6,545.8,669.3,546.9,668.5,546.8L668.5,546.8z"/>
<path class="st4" d="M673.6,579.3c6.7-4,11.6-10.4,13.8-17.8c0.2-0.7,1.4-0.4,1.1,0.4c-2.3,7.8-7.5,14.4-14.4,18.5
	C673.4,580.7,672.9,579.7,673.6,579.3L673.6,579.3z"/>
<path class="st4" d="M680.2,513.9c2.8,1.3,6,1.1,8.6-0.4c0.7-0.4,1.2,0.7,0.5,1.1c-2.9,1.7-6.5,1.9-9.5,0.5
	c-0.3-0.1-0.5-0.4-0.4-0.8C679.6,513.9,679.9,513.8,680.2,513.9L680.2,513.9z"/>
<path class="st9" d="M773,541.4c-0.4,0.3-0.8,0.5-1.2,0.8c-5.4,3.6-10.5,7.6-15.3,12c-0.4,0.3-0.7,0.7-1.1,1
	c-11.4,10.7-20.7,23.4-27.4,37.6c-2.7,5.6-4.9,11.4-6.7,17.4c-2.5,8.2-4.5,17.3-9.4,24.1c-0.5,0.7-1.1,1.4-1.6,2h-44.4
	c-0.1-0.1-0.2-0.1-0.3-0.1l-1.8,0.1c0.1-0.3,0.2-0.6,0.2-1c0-0.2,0.1-0.4,0.1-0.5c0-0.1,0.1-0.2,0.1-0.4c0,0,0-0.1,0-0.1
	c0-0.1,0.1-0.2,0.1-0.3c0.4-1.8,0.9-3.6,1.4-5.4c0,0,0,0,0,0c3.6-13.8,8.4-27.4,15.2-39.9c0.2-0.4,0.4-0.8,0.6-1.1
	c3.1-5.6,6.6-10.9,10.5-15.9c2.2-2.7,4.5-5.4,6.9-7.9c6.3-6.5,13.6-11.9,21.5-16.1c15.9-8.4,34.3-11.6,51.3-6.5
	C772.2,541.2,772.6,541.3,773,541.4z"/>
<path class="st4" d="M772.9,542c-22.1,4.4-42.2,15.6-57.6,32.1c-3.4,3.5-6.2,7.5-8.3,11.9c-1.9,4.3-2.7,9.1-2.1,13.8
	c0.4,4.4,1.3,8.8,0.7,13.2c-0.8,4.6-3.4,8.6-7.3,11c-4.7,3.2-10.3,4.4-15.8,5.5c-6.1,1.2-12.5,2.3-17.6,6.1c-0.6,0.5-1.3-0.5-0.7-1
	c8.9-6.6,20.8-5.2,30.5-9.9c4.5-2.2,8.4-5.8,9.6-10.8c1-4.4,0-9-0.4-13.5c-0.6-4.6,0-9.2,1.6-13.5c1.9-4.5,4.5-8.6,7.8-12.1
	c7.2-8.2,15.7-15.1,25.1-20.6c10.7-6.4,22.4-10.9,34.6-13.3C773.6,540.6,773.7,541.8,772.9,542L772.9,542z"/>
<path class="st4" d="M720,568.5c-5-6.1-4.8-14.9,0.4-20.8c0.5-0.6,1.4,0.2,0.9,0.8c-4.9,5.5-5,13.7-0.3,19.4
	C721.5,568.4,720.5,569.1,720,568.5L720,568.5z"/>
<path class="st4" d="M704.5,597.5c7.7,0.8,15.5-1.3,21.8-5.9c0.6-0.5,1.3,0.5,0.7,1c-6.5,4.8-14.6,7-22.7,6.1
	C703.5,598.6,703.7,597.4,704.5,597.5L704.5,597.5z"/>
<path class="st4" d="M749.2,549.3c1.4,2.7,4.1,4.5,7.1,4.8c0.8,0.1,0.5,1.3-0.2,1.2c-3.4-0.4-6.3-2.4-7.9-5.3
	c-0.2-0.3-0.1-0.6,0.2-0.8C748.6,548.9,749,549,749.2,549.3L749.2,549.3z"/>
<polygon class="st5" points="423.6,559.3 386.8,531.3 368.8,549.3 428.8,590.3 "/>
<path class="st5" d="M457.9,636.2h125.9l-4.4-14.3l0,0c-27.4-9.9-12-31.2-38-44.2c-63.7-31.8-88.3-126.9-79-164.4l-41.7-1.8
	C420.6,411.5,363,575.2,457.9,636.2z"/>
<path class="st9" d="M343.3,554.1c-0.4-5.6-2.9-10.8-7.2-14.4c0,0-0.1-0.1-0.1-0.1l-0.1-0.1c-2.8-2.5-4.9-5.6-6.1-9.2l-0.1-0.3
	l0.3,0c2.3-0.2,4.5-0.7,6.6-1.6c-2.5,0.2-5-0.1-7.4-0.9l-0.1,0l0-0.1c-2-11.5,5.7-22.5,17.2-24.5c1.1-0.2,2.2-0.3,3.3-0.3
	c3.8,0,7.4-1.7,9.9-4.6l0.2-0.2c1.6-1.8,3.4-3.5,5.5-4.9l0.2-0.1l0.1,0.1c1.3,1.2,2.7,2.2,4.3,3.1c-1.1-1.2-2.1-2.5-2.8-4l-0.1-0.2
	l0.2-0.1c14.2-8.3,32.5-3.5,40.8,10.7c6.5,11.1,5.1,25.1-3.4,34.8c-1.1,1.3-2.3,2.4-3.6,3.5c-7.3,5.8-13.2,13.1-17.3,21.5
	c-0.9,1.8-1.9,3.4-3.3,4.9c-0.2,0.3-0.5,0.5-0.7,0.8l-0.3,0.3l-0.1-0.4c-0.3-1.2-0.5-2.4-0.5-3.6c-0.5,1.7-0.8,3.4-0.8,5.2l0,0.1
	l-0.1,0.1c-9,7.4-22.4,6-29.8-3C345.1,563,343.5,558.6,343.3,554.1z"/>
<path class="st7" d="M346.6,562.2c0,0.8,0.1,1.5,0.2,2.3c-2.1-3.2-3.2-6.8-3.4-10.6c0-0.6-0.1-1.2-0.2-1.7
	C345.2,555.1,346.4,558.6,346.6,562.2z"/>
<path class="st7" d="M339.9,536.5c-1.7,0.7-3.5,1.2-5.3,1.5c-0.7-0.7-1.3-1.5-1.9-2.4C335,536.4,337.5,536.7,339.9,536.5z"/>
<path class="st7" d="M332.2,529.5c-0.2,1.8-0.1,3.7,0.2,5.5c-1-1.5-1.8-3.2-2.4-4.9l-0.1-0.3l0.3,0
	C330.8,529.7,331.5,529.6,332.2,529.5z"/>
<path class="st7" d="M334.1,509.4c3.9-4.5,9.6-7.1,15.5-7.2c3.8,0,7.4-1.7,9.9-4.6l0.2-0.2c1.6-1.8,3.4-3.5,5.5-4.9l0.2-0.1l0.1,0.1
	c1.3,1.2,2.7,2.2,4.3,3.1c-1.1-1.2-2.1-2.5-2.8-4l-0.1-0.2l0.2-0.1c14.2-8.3,32.5-3.5,40.8,10.7c1.6,2.7,2.7,5.6,3.4,8.6
	c-8.2-14.3-26.4-19.3-40.7-11.2c-0.1,0.1-0.2,0.1-0.3,0.2l-0.2,0.1l0.1,0.2c0.7,1.5,1.6,2.8,2.8,4c-1.6-0.8-3-1.9-4.3-3.1l-0.1-0.1
	l-0.2,0.1c-2,1.4-3.8,3-5.5,4.9l-0.2,0.2c-2.5,2.9-6.1,4.5-9.9,4.6c-10.1,0.2-18.7,7.5-20.5,17.4c-1-0.2-2.1-0.4-3.1-0.7l-0.1,0
	l0-0.1C328,520.7,329.9,514.2,334.1,509.4z"/>
<path class="st9" d="M310.4,373.3c12.5-12.1,19.6-29.6,19.6-48c0-0.1,0-0.2,0-0.4l0-0.3c0-12.1,3.2-23.9,9.3-34.3l0.5-0.8l0.7,0.7
	c5.3,5.1,11.4,9.3,18,12.4c-5.2-4.7-9.5-11.1-13.5-19.8l-0.2-0.4l0.3-0.4c23.6-29.3,66.5-34,95.8-10.4c2.8,2.2,5.3,4.6,7.7,7.3
	c8.2,9.1,19.8,14.2,32,14.2l0.9,0c7.9,0,15.7,1,23.4,2.9l0.6,0.1l0,0.6c-0.2,5.7,0.3,11.4,1.6,16.9c0.5-5.2,1.7-10.4,3.8-15.2
	l0.3-0.6l0.7,0.2c50.4,16.7,77.7,71.1,61,121.5c-13,39.3-49.8,65.8-91.2,65.9c-5.4,0-10.8-0.4-16.1-1.3c-31.1-5.2-60.9-3.9-88.7,4
	c-6.1,1.7-12.5,2.6-18.8,2.6c-1.1,0-2.2,0-3.3-0.1l-1.3-0.1l0.7-1.1c2.1-3.3,4.7-6.3,7.5-8.9c-5.1,2.4-9.9,5.4-14.2,9l-0.3,0.2
	l-0.3-0.1c-37.1-6.2-62.2-41.3-56-78.4C292.9,396.7,299.9,383.4,310.4,373.3z"/>
<g class="st8">
	<path d="M372.9,261.3c2.3,3.9,5.2,7.4,8.6,10.5c-4.8-2.2-9.3-5.1-13.4-8.4C369.6,262.6,371.2,261.9,372.9,261.3z"/>
	<path d="M333.4,342.6c-3.7,3.6-7,7.6-9.8,11.9c4.2-9.2,6.4-19.2,6.4-29.3c0-0.1,0-0.2,0-0.4l0-0.3c0-12.1,3.2-23.9,9.3-34.3
		l0.5-0.8l0.7,0.7c3.8,3.6,7.9,6.8,12.4,9.5C351.7,316.1,344.8,331.6,333.4,342.6z"/>
	<path d="M353,293.9l0,0.3c0,0.1,0,0.2,0,0.4c0,0.7,0,1.3,0,2c-3.2-4.3-5.9-9-8.1-13.9l-0.2-0.4l0.3-0.4c3.6-4.5,7.7-8.5,12.3-11.9
		C354.5,277.6,353,285.7,353,293.9z"/>
	<path d="M310.4,373.3c3.3-3.2,6.2-6.7,8.7-10.6c-16,34-1.3,74.6,32.7,90.5c5.6,2.6,11.6,4.5,17.7,5.5l0.3,0.1l0.3-0.2
		c4.3-3.6,9.1-6.7,14.2-9c-2.9,2.6-5.4,5.6-7.5,8.9l-0.7,1.1l1.3,0.1c1.1,0.1,2.3,0.1,3.3,0.1c6.4,0,12.7-0.9,18.8-2.6
		c27.8-7.9,57.7-9.3,88.7-4c5.3,0.9,10.7,1.3,16.1,1.3c23.6,0,46.3-8.7,63.9-24.4c-15.9,33.6-49.7,55-86.9,55.1
		c-5.4,0-10.8-0.4-16.1-1.3c-31.1-5.2-60.9-3.9-88.7,4c-6.1,1.7-12.5,2.6-18.8,2.6c-1.1,0-2.2,0-3.3-0.1l-1.3-0.1l0.7-1.1
		c2.1-3.3,4.7-6.3,7.5-8.9c-5.1,2.4-9.9,5.4-14.2,9l-0.3,0.2l-0.3-0.1c-37.1-6.2-62.2-41.3-56-78.4
		C292.9,396.7,299.9,383.4,310.4,373.3L310.4,373.3z"/>
</g>
<path class="st6" d="M48.5,562.6c-22.7,0-42.1-16.4-45.9-38.9l0-0.2l0.1-0.2c2.5-3,4.5-6.2,6.2-9.7c-1.8,2-3.8,3.7-6.1,5.2L2,519.3
	l0-0.9c0-0.8-0.1-1.5-0.1-2.3c0-4.3,0.6-8.7,1.8-12.8c5.4-19,6.3-39.4,2.7-60.6c-0.6-3.6-0.9-7.3-0.9-11C5.6,395.4,35,366,71.2,366
	c28.3,0,53.4,18.1,62.3,45l0.1,0.5l-0.4,0.2c-3.3,1.4-6.8,2.3-10.4,2.6c3.8,0.9,7.7,1.2,11.5,1.1l0.4,0l0.1,0.4c1.3,5.2,2,10.6,2,16
	l0,0.6c0,8.3,3.5,16.3,9.7,21.9c19,17.3,20.4,46.7,3.1,65.7c-1.6,1.8-3.4,3.4-5.3,5l-0.2,0.2l-0.3-0.1c-6-2.7-10.4-5.7-13.5-9.2
	c2.1,4.5,5,8.7,8.5,12.3l0.5,0.5l-0.6,0.3c-7.1,4.1-15.2,6.3-23.4,6.3l-0.2,0c-0.1,0-0.2,0-0.2,0c-12.3-0.1-24.1,4.7-32.8,13.4
	C73.1,557.4,61.1,562.6,48.5,562.6z"/>
<path class="st5" d="M32,635.9c-0.4,0-0.8-0.3-0.8-0.7c0-0.3-3.5-25.5-0.4-58.9c2.9-30.9,12.2-75.5,40.1-112.1
	c0.3-0.4,0.8-0.4,1.2-0.2c0.4,0.3,0.4,0.8,0.2,1.2c0,0,0,0,0,0c-27.6,36.3-36.9,80.5-39.7,111.2c-3.1,33.3,0.3,58.3,0.4,58.6
	c0.1,0.5-0.3,0.9-0.7,0.9C32.1,635.9,32,635.9,32,635.9z"/>
<path class="st5" d="M45.9,512.6c-0.5,0-0.8-0.4-0.8-0.8c0-0.3,0.1-0.5,0.3-0.7c7.9-5.4,16.5-9.7,25.5-13
	c14.1-5.2,35.5-9.8,57.6-2.8c0.4,0.1,0.7,0.6,0.5,1.1c-0.1,0.4-0.6,0.7-1.1,0.5c-21.6-6.9-42.7-2.3-56.5,2.8
	c-8.9,3.2-17.3,7.5-25.1,12.8C46.3,512.5,46.1,512.6,45.9,512.6z"/>
<path class="st10" d="M885.3,637.1H2.9c-0.5,0-0.9-0.4-0.9-0.9c0-0.5,0.4-0.9,0.9-0.9c0,0,0,0,0,0h882.5c0.5,0,0.9,0.4,0.9,0.9
	S885.8,637.1,885.3,637.1z"/>
<path class="st9" d="M469.6,560c-3.9-7.2-4.4-16.5,0.3-23.1c2.3,8.5,7.6,16,14.9,21c2.8,1.9,6.2,3.8,7.1,7c0.5,2.1,0.2,4.3-0.9,6.1
	c-1.1,1.8-2.4,3.5-3.9,5l-0.1,0.5C480.2,572.4,473.5,567.2,469.6,560z"/>
<path class="st9" d="M232.6,379c-3.9-7.2-4.4-16.5,0.3-23.1c2.3,8.5,7.6,16,14.9,21c2.8,1.9,6.2,3.8,7.1,7c0.5,2.1,0.2,4.3-0.9,6.1
	c-1.1,1.8-2.4,3.5-3.9,5l-0.1,0.5C243.2,391.4,236.5,386.2,232.6,379z"/>
</svg>
